<?xml version="1.0" encoding="UTF-8" standalone="no"?>
<svg
   height="16"
   viewBox="0 0 16 16"
   width="16"
   version="1.1"
   id="svg8"
   xmlns="http://www.w3.org/2000/svg"
   xmlns:svg="http://www.w3.org/2000/svg">
  <defs
     id="defs12" />
  <g
     fill-rule="evenodd"
     transform="translate(0,-924.36)"
     id="g6">
    <path
       d="m 7.9400311,925.19515 c -0.254613,0.007 -0.497238,0.112 -0.677488,0.29198 l -2.5e-4,2.5e-4 -3.707,3.70725 h -1.586 c -0.546312,6e-5 -0.99995002,0.45369 -1.00000002,1 v 4 c 5.5e-5,0.54632 0.45368802,0.99994 1.00000002,1 h 1.586 l 3.707,3.707 c 0.3,0.29979 0.747438,0.35828 1.0896,0.21655 0.342163,-0.14171 0.617263,-0.49947 0.617438,-0.92357 v -12.0005 c -3.75e-4,-0.55694 -0.472375,-1.01514 -1.02905,-0.99903 z m 6.0292499,0.49926 c -0.546363,0 -1,0.45364 -1,1 v 11 c 0,0.54636 0.453637,1 1,1 0.546362,0 1,-0.45364 1,-1 v -11 c 0,-0.54636 -0.453638,-1 -1,-1 z m -3,3 c -0.546363,0 -0.9999998,0.45364 -0.9999998,1 v 5 c 0,0.54636 0.4536368,1 0.9999998,1 0.546362,0 1,-0.45364 1,-1 v -5 c 0,-0.54636 -0.453638,-1 -1,-1 z"
       fill-opacity="0.29412"
       id="path2"
       style="stroke-width:0.125" />
    <path
       d="m 7.9546561,925.6944 c -0.127438,0.004 -0.24865,0.0559 -0.338863,0.146 l -3.8535,3.85375 h -1.793 c -0.276125,2e-5 -0.499975,0.22387 -0.5,0.5 v 4 c 2.8e-5,0.27612 0.223875,0.49997 0.5,0.5 h 1.793 l 3.8535,3.8535 c 0.315,0.31477 0.853338,0.0918 0.853513,-0.35352 v -12.00025 c -1.88e-4,-0.28176 -0.233013,-0.50773 -0.51465,-0.49951 z m 6.0146249,0.49951 a 0.5,0.5 0 0 0 -0.5,0.5 v 11 a 0.5,0.5 0 0 0 0.5,0.5 0.5,0.5 0 0 0 0.5,-0.5 v -11 a 0.5,0.5 0 0 0 -0.5,-0.5 z m -3,3 a 0.5,0.5 0 0 0 -0.5,0.5 v 5 a 0.5,0.5 0 0 0 0.5,0.5 0.5,0.5 0 0 0 0.5,-0.5 v -5 a 0.5,0.5 0 0 0 -0.5,-0.5 z"
       fill="#f7f5cf"
       id="path4"
       style="stroke-width:0.125" />
  </g>
</svg>
